{"title":"FALTU - DVDScr - XviD - 1CDRip - VeDesi","uid":6288525,"size":734173593,"categoryP":"video","categoryS":"movies","magnet":"?xt=urn:btih:140c740ce06d4284c068f491de8420db41822268&amp;dn=FALTU+-+DVDScr+-+XviD+-+1CDRip+-+VeDesi&amp;tr=udp%3A%2F%2Ftracker.openbittorrent.com%3A80&amp;tr=udp%3A%2F%2Fopen.demonii.com%3A1337&amp;tr=udp%3A%2F%2Ftracker.coppersurfer.tk%3A6969&amp;tr=udp%3A%2F%2Fexodus.desync.com%3A6969","seeders":0,"leechers":0,"uploader":"Azurious","files":-1,"time":1301709228,"description":"General\nComplete name                    : FALTU - DVDScr - XviD - 1CDRip - VeDesi.avi\nFormat                           : AVI\nFormat/Info                      : Audio Video Interleave\nFile size                        : 693 MiB\nDuration                         : 2h 0mn\nOverall bit rate                 : 805 Kbps\nWriting application              : VirtualDubMod 1.5.10.2 (build 2540/release)\nWriting library                  : VirtualDubMod build 2540/release\n\nVideo\nID                               : 0\nFormat                           : MPEG-4 Visual\nFormat profile                   : Advanced Simple@L5\nFormat settings, BVOP            : 3\nFormat settings, QPel            : No\nFormat settings, GMC             : No warppoints\nFormat settings, Matrix          : Custom\nCodec ID                         : XVID\nCodec ID/Hint                    : XviD\nDuration                         : 2h 0mn\nBit rate                         : 720 Kbps\nWidth                            : 688 pixels\nHeight                           : 288 pixels\nDisplay aspect ratio             : 2.35:1\nFrame rate                       : 25.000 fps\nColor space                      : YUV\nChroma subsampling               : 4:2:0\nBit depth                        : 8 bits\nScan type                        : Progressive\nCompression mode                 : Lossy\nBits/(Pixel*Frame)               : 0.145\nStream size                      : 620 MiB (89%)\nWriting library                  : XviD 1.2.1 (UTC 2008-12-04)\n\nAudio\nID                               : 1\nFormat                           : MPEG Audio\nFormat version                   : Version 2\nFormat profile                   : Layer 3\nMode                             : Joint stereo\nMode extension                   : Intensity Stereo + MS Stereo\nCodec ID                         : 55\nCodec ID/Hint                    : MP3\nDuration                         : 2h 0mn\nBit rate mode                    : Constant\nBit rate                         : 80.0 Kbps\nChannel(s)                       : 2 channels\nSampling rate                    : 24.0 KHz\nCompression mode                 : Lossy\nStream size                      : 68.9 MiB (10%)\nAlignment                        : Aligned on interleaves\nInterleave, duration             : 1000 ms (25.00 video frames)\nInterleave, preload duration     : 1008 ms\n\n\n\nscreen shots:\n\n  &lt;a href=&quot;\nhttp://bollywoodreleases.info/images/04391460063002681937.png&quot; rel=&quot;nofollow&quot; target=&quot;_NEW&quot;&gt;\nhttp://bollywoodreleases.info/images/04391460063002681937.png&lt;/a&gt;\n &lt;a href=&quot;\nhttp://bollywoodreleases.info/images/90454778963021352002.png&quot; rel=&quot;nofollow&quot; target=&quot;_NEW&quot;&gt;\nhttp://bollywoodreleases.info/images/90454778963021352002.png&lt;/a&gt;\n &lt;a href=&quot;\nhttp://bollywoodreleases.info/images/61579307532012578658.png&quot; rel=&quot;nofollow&quot; target=&quot;_NEW&quot;&gt;\nhttp://bollywoodreleases.info/images/61579307532012578658.png&lt;/a&gt;\n &lt;a href=&quot;\nhttp://bollywoodreleases.info/images/20345774162270075951.png&quot; rel=&quot;nofollow&quot; target=&quot;_NEW&quot;&gt;\nhttp://bollywoodreleases.info/images/20345774162270075951.png&lt;/a&gt;","torrent":{"xt":"urn:btih:140c740ce06d4284c068f491de8420db41822268","amp;dn":"FALTU+-+DVDScr+-+XviD+-+1CDRip+-+VeDesi","amp;tr":["udp%3A%2F%2Ftracker.openbittorrent.com%3A80","udp%3A%2F%2Fopen.demonii.com%3A1337","udp%3A%2F%2Ftracker.coppersurfer.tk%3A6969","udp%3A%2F%2Fexodus.desync.com%3A6969"],"infoHash":"140c740ce06d4284c068f491de8420db41822268","infoHashBuffer":{"type":"Buffer","data":[20,12,116,12,224,109,66,132,192,104,244,145,222,132,32,219,65,130,34,104]},"announce":[],"urlList":[]}}